. 
 
http://www.torrentday.com   -    Your Key To The Scene.

Now TvTeam with [No-RAR] Releases.

(((((((((((((= Enjoy No RAR releases =))))))))))))))))))))

...................................NFO:....................................


The Book Of Eli DVDSCR XViD - IMAGiNE


Ripper ...........: IMAGiNE                                        IMDB Rating.......:7.6/10                             
Video Codec.......: XVID                                         Release Date......:03/05/10
Audio Codec.......:AC3                                           Theatre Date......:15/01/10
Audio Bitrate.....:192                                              Runtime.......:1h 57mn
Subtitles.........:NIL                                                 Language..........:ENGLISH
Resolution...... 720 x 288                                      IMDb URL..........:http://www.imdb.com/title/tt1037705/


[color=yellow]DETAILS:[/color]

Video
ID                               : 0
Format                           : MPEG-4 Visual
Format profile                   : Advanced Simple@L5
Format settings, BVOP            : Yes
Format settings, QPel            : No
Format settings, GMC             : No warppoints
Format settings, Matrix          : Default (MPEG)
Muxing mode                      : Packed bitstream
Codec ID                         : XVID
Codec ID/Hint                    : XviD
Duration                         : 1h 57mn
Bit rate                         : 1 468 Kbps
Width                            : 720 pixels
Height                           : 288 pixels
Display aspect ratio             : 2.500
Frame rate                       : 23.976 fps
Resolution                       : 24 bits
Colorimetry                      : 4:2:0
Scan type                        : Progressive
Bits/(Pixel*Frame)               : 0.295
Stream size                      : 1.21 GiB (88%)
Writing library                  : XviD 1.2.1 (UTC 2008-12-04)

Audio
ID                               : 1
Format                           : AC-3
Format/Info                      : Audio Coding 3
Codec ID                         : 2000
Duration                         : 1h 57mn
Bit rate mode                    : Constant
Bit rate                         : 192 Kbps
Channel(s)                       : 2 channels
Channel positions                : L R
Sampling rate                    : 48.0 KHz
Stream size                      : 161 MiB (11%)
Alignment                        : Aligned on interleaves
Interleave, duration             : 42 ms (1.00 video frame)
Interleave, preload duration     : 512 ms




IMAGiNE bringing you another release.....The Book Of Eli DVDSCR 

Well we wasn't going to do this,but enough users asked so here you go :P
Source used was The.Book.Of.Eli.2010.NTSC.DVDSCR-KTY (thanks guys)
Well got to pre warn you all for a dvdscr this is poor......however it's better than the TS's thats out so.
The video was really dark,lacked some colour and a bit blurry.....we fixed what we could anyway .
Audio we left untouched and just muxed it back after tweaking the video.

Enjoy :)